<svg xmlns="http://www.w3.org/2000/svg" style="display:none">

	<symbol id="cart" viewBox="0 0 38 38">
		<g clip-path="url(#clip0_43_153)">
		<path d="M37.6901 10.5391C37.4692 10.2256 37.1094 10.0379 36.7259 10.0379H11.5236L9.61525 3.45918C8.86712 0.86806 7.08943 0.588997 6.36031 0.588997H1.27306C0.621122 0.588997 0.0938721 1.11743 0.0938721 1.76818C0.0938721 2.41893 0.62231 2.94737 1.27306 2.94737H6.35912C6.52062 2.94737 7.01106 2.94737 7.34593 4.104L13.9092 28.2233C14.0517 28.7316 14.5161 29.0831 15.0445 29.0831H31.0746C31.5721 29.0831 32.0162 28.7719 32.1837 28.3029L37.8338 11.6149C37.9644 11.2539 37.9098 10.8514 37.6889 10.5379L37.6901 10.5391ZM30.2457 26.7259H15.9411L12.1874 12.3975H35.0503L30.2457 26.7259ZM27.9063 31.4735C26.2664 31.4735 24.9376 32.8023 24.9376 34.4422C24.9376 36.0822 26.2664 37.411 27.9063 37.411C29.5462 37.411 30.8751 36.0822 30.8751 34.4422C30.8751 32.8023 29.5462 31.4735 27.9063 31.4735ZM17.2188 31.4735C15.5789 31.4735 14.2501 32.8023 14.2501 34.4422C14.2501 36.0822 15.5789 37.411 17.2188 37.411C18.8587 37.411 20.1876 36.0822 20.1876 34.4422C20.1876 32.8023 18.8587 31.4735 17.2188 31.4735Z"/>
		</g>
		<defs>
		<clipPath id="clip0_43_153">
		<rect width="38" height="38" fill="white"/>
		</clipPath>
		</defs>
	</symbol>
	
	<symbol id="user" viewBox="0 0 40 40">
		<path d="M20 0C31.0455 0.000197916 40 8.95443 40 20C39.9998 31.0454 31.0454 39.9998 20 40C14.2908 40 9.14018 37.6072 5.49609 33.7705H5.25293C5.25293 33.685 5.25622 33.5998 5.25781 33.5146C1.99294 29.9553 8.94802e-05 25.2106 0 20C0 8.95431 8.95431 0 20 0ZM19.5117 21.6719C13.0461 21.6719 7.72891 26.4414 7.09766 32.5498C10.3679 35.9111 14.94 38 20 38C24.6024 37.9999 28.7999 36.2705 31.9824 33.4287C31.7957 26.9051 26.2844 21.6719 19.5117 21.6719ZM20 2C10.0589 2 2 10.0589 2 20C2.00008 24.0459 3.33447 27.7802 5.58789 30.7861C6.71249 25.8304 10.5772 21.871 15.5645 20.4805C13.1226 19.0414 11.4913 16.437 11.4912 13.4629C11.4912 8.92894 15.2814 5.25314 19.957 5.25293C24.6328 5.25293 28.4238 8.92881 28.4238 13.4629C28.4237 16.5613 26.6532 19.2587 24.04 20.6562C29.0646 22.2861 32.839 26.5563 33.6191 31.7676C36.348 28.6121 37.9999 24.4992 38 20C38 10.059 29.941 2.0002 20 2ZM19.957 6.98145C16.2658 6.98166 13.2734 9.88348 13.2734 13.4629C13.2736 17.0422 16.2659 19.9441 19.957 19.9443C23.6483 19.9443 26.6414 17.0423 26.6416 13.4629C26.6416 9.88335 23.6484 6.98145 19.957 6.98145Z"/>
	</symbol>

	<symbol id="plus" viewBox="0 0 42 42">
		<path d="M23.1 18.9V10.5H18.9V18.9H10.5V23.1H18.9V31.5H23.1V23.1H31.5V18.9H23.1ZM21 42C15.4305 42 10.089 39.7875 6.15076 35.8492C2.21249 31.911 0 26.5695 0 21C0 15.4305 2.21249 10.089 6.15076 6.15076C10.089 2.21249 15.4305 0 21 0C26.5695 0 31.911 2.21249 35.8492 6.15076C39.7875 10.089 42 15.4305 42 21C42 26.5695 39.7875 31.911 35.8492 35.8492C31.911 39.7875 26.5695 42 21 42Z"/>
	</symbol>

	<symbol id="minus" viewBox="0 0 42 42">
		<path fill-rule="evenodd" clip-rule="evenodd" d="M6.15076 35.8492C10.089 39.7875 15.4305 42 21 42C26.5695 42 31.911 39.7875 35.8492 35.8492C39.7875 31.911 42 26.5695 42 21C42 15.4305 39.7875 10.089 35.8492 6.15076C31.911 2.21249 26.5695 0 21 0C15.4305 0 10.089 2.21249 6.15076 6.15076C2.21249 10.089 0 15.4305 0 21C0 26.5695 2.21249 31.911 6.15076 35.8492ZM10.5 18.9H31.5V23.1H10.5V18.9Z"/>
	</symbol>

	<symbol id="favorite" viewBox="0 0 24 24">
		<path fill-rule="evenodd" clip-rule="evenodd" d="M11.993 5.09691C11.0387 4.25883 9.78328 3.75 8.40796 3.75C5.42122 3.75 3 6.1497 3 9.10988C3 10.473 3.50639 11.7242 4.35199 12.67L12 20.25L19.4216 12.8944L19.641 12.6631C20.4866 11.7172 21 10.473 21 9.10988C21 6.1497 18.5788 3.75 15.592 3.75C14.2167 3.75 12.9613 4.25883 12.007 5.09692L12 5.08998L11.993 5.09691ZM12 7.09938L12.0549 7.14755L12.9079 6.30208L12.9968 6.22399C13.6868 5.61806 14.5932 5.25 15.592 5.25C17.763 5.25 19.5 6.99073 19.5 9.10988C19.5 10.0813 19.1385 10.9674 18.5363 11.6481L18.3492 11.8453L12 18.1381L5.44274 11.6391C4.85393 10.9658 4.5 10.0809 4.5 9.10988C4.5 6.99073 6.23699 5.25 8.40796 5.25C9.40675 5.25 10.3132 5.61806 11.0032 6.22398L11.0921 6.30203L11.9452 7.14752L12 7.09938Z"/>
	</symbol>

	<symbol id="mealplan" viewBox="0 0 48 48">
		<path d="M12 5C12 4.44772 12.4477 4 13 4C13.5523 4 14 4.44772 14 5V11C14 11.5523 13.5523 12 13 12C12.4477 12 12 11.5523 12 11V5Z"/>
		<path d="M28 5C28 4.44772 28.4477 4 29 4C29.5523 4 30 4.44772 30 5V11C30 11.5523 29.5523 12 29 12C28.4477 12 28 11.5523 28 11V5Z"/>
		<path fill-rule="evenodd" clip-rule="evenodd" d="M14 23H12L12 25H14V23ZM12 21C10.8954 21 10 21.8954 10 23V25C10 26.1046 10.8954 27 12 27H14C15.1046 27 16 26.1046 16 25V23C16 21.8954 15.1046 21 14 21H12Z"/>
		<path fill-rule="evenodd" clip-rule="evenodd" d="M22 23H20L20 25H22V23ZM20 21C18.8954 21 18 21.8954 18 23V25C18 26.1046 18.8954 27 20 27H22C23.1046 27 24 26.1046 24 25V23C24 21.8954 23.1046 21 22 21H20Z"/>
		<path fill-rule="evenodd" clip-rule="evenodd" d="M30 23H28L28 25H30V23ZM28 21C26.8954 21 26 21.8954 26 23V25C26 26.1046 26.8954 27 28 27H30C31.1046 27 32 26.1046 32 25V23C32 21.8954 31.1046 21 30 21H28Z"/>
		<path fill-rule="evenodd" clip-rule="evenodd" d="M14 31H12L12 33H14V31ZM12 29C10.8954 29 10 29.8954 10 31V33C10 34.1046 10.8954 35 12 35H14C15.1046 35 16 34.1046 16 33V31C16 29.8954 15.1046 29 14 29H12Z"/>
		<path fill-rule="evenodd" clip-rule="evenodd" d="M22 31H20L20 33H22V31ZM20 29C18.8954 29 18 29.8954 18 31V33C18 34.1046 18.8954 35 20 35H22C23.1046 35 24 34.1046 24 33V31C24 29.8954 23.1046 29 22 29H20Z"/>
		<path fill-rule="evenodd" clip-rule="evenodd" d="M9 10H33C34.1046 10 35 10.8954 35 12V28C35.6906 28 36.3608 28.0875 37 28.252V12C37 9.79086 35.2091 8 33 8H9C6.79086 8 5 9.79086 5 12V36C5 38.2091 6.79086 40 9 40H28.0703C27.7122 39.381 27.4347 38.7095 27.252 38H9C7.89543 38 7 37.1046 7 36V12C7 10.8954 7.89543 10 9 10Z"/>
		<path fill-rule="evenodd" clip-rule="evenodd" d="M36 19H6V17H36V19Z"/>
		<path fill-rule="evenodd" clip-rule="evenodd" d="M35 42C38.3137 42 41 39.3137 41 36C41 32.6863 38.3137 30 35 30C31.6863 30 29 32.6863 29 36C29 39.3137 31.6863 42 35 42ZM35 44C39.4183 44 43 40.4183 43 36C43 31.5817 39.4183 28 35 28C30.5817 28 27 31.5817 27 36C27 40.4183 30.5817 44 35 44Z"/>
		<path fill-rule="evenodd" clip-rule="evenodd" d="M35 31.1787C35.5523 31.1787 36 31.6264 36 32.1787V36.4768L38.4515 38.1785C38.9052 38.4934 39.0177 39.1165 38.7027 39.5702C38.3878 40.0239 37.7647 40.1364 37.311 39.8215L34 37.5232V32.1787C34 31.6264 34.4477 31.1787 35 31.1787Z"/>
	</symbol>

	<symbol id="chevron_down" viewBox="0 0 32 32">
		<polygon points="16,22 6,12 7.4,10.6 16,19.2 24.6,10.6 26,12"/>
	</symbol>

	<symbol id="menu" viewBox="0 0 28 20">
		<path d="M1.47363 16.9648C2.28651 16.965 2.94803 17.6261 2.94824 18.4395C2.94824 19.2496 2.28664 19.9091 1.47363 19.9092C0.661465 19.9092 0 19.2497 0 18.4395C0.000209859 17.6261 0.661594 16.9648 1.47363 16.9648ZM1.47363 17.751C1.09507 17.751 0.787319 18.0595 0.787109 18.4395C0.787109 18.8162 1.09494 19.123 1.47363 19.123C1.85316 19.1229 2.16211 18.8161 2.16211 18.4395C2.1619 18.0597 1.85303 17.7511 1.47363 17.751ZM27.3203 18.0469C27.5373 18.0469 27.7137 18.2225 27.7139 18.4395C27.7139 18.6565 27.5374 18.833 27.3203 18.833H8.33984C8.12275 18.833 7.94629 18.6565 7.94629 18.4395C7.9465 18.2225 8.12288 18.0469 8.33984 18.0469H27.3203ZM1.47363 8.48242C2.28664 8.48254 2.94824 9.14322 2.94824 9.95508C2.94801 10.7667 2.2865 11.4266 1.47363 11.4268C0.661609 11.4268 0.000234486 10.7668 0 9.95508C0 9.14314 0.661465 8.48242 1.47363 8.48242ZM1.47363 9.26855C1.09494 9.26855 0.787109 9.57668 0.787109 9.95508C0.787313 10.3333 1.09507 10.6406 1.47363 10.6406C1.85304 10.6405 2.16191 10.3332 2.16211 9.95508C2.16211 9.57675 1.85316 9.26867 1.47363 9.26855ZM27.3203 9.56152C27.5374 9.56152 27.7139 9.73799 27.7139 9.95508C27.7137 10.172 27.5373 10.3477 27.3203 10.3477H8.33984C8.12288 10.3477 7.94649 10.172 7.94629 9.95508C7.94629 9.73799 8.12275 9.56152 8.33984 9.56152H27.3203ZM1.47363 0C2.28654 0.000116309 2.94807 0.660701 2.94824 1.47266C2.94824 2.28428 2.28664 2.9452 1.47363 2.94531C0.661465 2.94531 0.000976562 2.28436 0.000976562 1.47266C0.00114411 0.660688 0.661568 0 1.47363 0ZM1.47363 0.786133C1.09504 0.786133 0.787277 1.09416 0.787109 1.47266C0.787109 1.85088 1.09494 2.15918 1.47363 2.15918C1.85316 2.15906 2.16211 1.85081 2.16211 1.47266C2.16194 1.09424 1.85306 0.786249 1.47363 0.786133ZM27.3203 1.08008C27.5373 1.08008 27.7137 1.25571 27.7139 1.47266C27.7139 1.68975 27.5374 1.86621 27.3203 1.86621H8.33984C8.12275 1.86621 7.94629 1.68975 7.94629 1.47266C7.94646 1.25571 8.12286 1.08008 8.33984 1.08008H27.3203Z"/>
	</symbol>

	<symbol id="search" viewBox="0 0 24 24">
		<path d="M15.716,4.354a8.031,8.031,0,1,0-2.7,13.138l3.58,3.581A3.164,3.164,0,0,0,21.073,16.6l-3.58-3.58A8.046,8.046,0,0,0,15.716,4.354ZM10.034,16.069A6.033,6.033,0,1,1,14.3,14.3,6,6,0,0,1,10.034,16.069Zm9.625,1.943a1.165,1.165,0,0,1-1.647,1.647l-3.186-3.186a8.214,8.214,0,0,0,.89-.757,8.214,8.214,0,0,0,.757-.89Z"/>
	</symbol>
</svg>